<mxfile host="Electron" agent="Mozilla/5.0 (Windows NT 10.0; Win64; x64) AppleWebKit/537.36 (KHTML, like Gecko) draw.io/26.1.1 Chrome/132.0.6834.210 Electron/34.3.3 Safari/537.36" version="26.1.1">
  <diagram name="Page-1" id="EJsRQj1VtOxyJLVTO5oW">
    <mxGraphModel dx="1290" dy="621" grid="1" gridSize="10" guides="1" tooltips="1" connect="1" arrows="1" fold="1" page="1" pageScale="1000" pageWidth="850" pageHeight="1100" math="0" shadow="0">
      <root>
        <mxCell id="0" />
        <mxCell id="1" parent="0" />
        <mxCell id="dmmK0RkEytolnTPD6juw-1" value="Report&lt;div&gt;&lt;br&gt;&lt;/div&gt;" style="swimlane;fontStyle=1;align=center;verticalAlign=top;childLayout=stackLayout;horizontal=1;startSize=26;horizontalStack=0;resizeParent=1;resizeParentMax=0;resizeLast=0;collapsible=1;marginBottom=0;whiteSpace=wrap;html=1;" parent="1" vertex="1">
          <mxGeometry x="1810" y="300" width="160" height="220" as="geometry" />
        </mxCell>
        <mxCell id="dmmK0RkEytolnTPD6juw-2" value="+ Id: int&lt;br&gt;+ Image: Image&lt;div&gt;+ Text: String&lt;/div&gt;&lt;div&gt;&lt;span style=&quot;background-color: transparent;&quot;&gt;+ coordinates: Coordinates&lt;/span&gt;&lt;/div&gt;&lt;div&gt;&lt;span style=&quot;background-color: transparent; color: light-dark(rgb(0, 0, 0), rgb(255, 255, 255));&quot;&gt;+ Status: Enum{PENDING,VALID,&lt;/span&gt;&lt;/div&gt;&lt;div&gt;INVALID}&lt;/div&gt;&lt;div&gt;+ riskScore: Float&lt;/div&gt;&lt;div&gt;+ riskCategory: String&lt;/div&gt;" style="text;strokeColor=none;fillColor=none;align=left;verticalAlign=top;spacingLeft=4;spacingRight=4;overflow=hidden;rotatable=0;points=[[0,0.5],[1,0.5]];portConstraint=eastwest;whiteSpace=wrap;html=1;" parent="dmmK0RkEytolnTPD6juw-1" vertex="1">
          <mxGeometry y="26" width="160" height="134" as="geometry" />
        </mxCell>
        <mxCell id="dmmK0RkEytolnTPD6juw-3" value="" style="line;strokeWidth=1;fillColor=none;align=left;verticalAlign=middle;spacingTop=-1;spacingLeft=3;spacingRight=3;rotatable=0;labelPosition=right;points=[];portConstraint=eastwest;strokeColor=inherit;" parent="dmmK0RkEytolnTPD6juw-1" vertex="1">
          <mxGeometry y="160" width="160" height="8" as="geometry" />
        </mxCell>
        <mxCell id="dmmK0RkEytolnTPD6juw-4" value="+ isValid(): Boolean&lt;div&gt;+ updateStatus(newStatus: Status): void&lt;/div&gt;" style="text;strokeColor=none;fillColor=none;align=left;verticalAlign=top;spacingLeft=4;spacingRight=4;overflow=hidden;rotatable=0;points=[[0,0.5],[1,0.5]];portConstraint=eastwest;whiteSpace=wrap;html=1;" parent="dmmK0RkEytolnTPD6juw-1" vertex="1">
          <mxGeometry y="168" width="160" height="52" as="geometry" />
        </mxCell>
        <mxCell id="dmmK0RkEytolnTPD6juw-5" value="AnalysisResult" style="swimlane;fontStyle=1;align=center;verticalAlign=top;childLayout=stackLayout;horizontal=1;startSize=26;horizontalStack=0;resizeParent=1;resizeParentMax=0;resizeLast=0;collapsible=1;marginBottom=0;whiteSpace=wrap;html=1;" parent="1" vertex="1">
          <mxGeometry x="1400" y="880" width="160" height="90" as="geometry" />
        </mxCell>
        <mxCell id="dmmK0RkEytolnTPD6juw-6" value="&lt;div&gt;+ relevant: Boolean&lt;/div&gt;&lt;div&gt;+ summary: String&lt;/div&gt;&lt;div&gt;+ confidence: Float&lt;/div&gt;&lt;div&gt;&lt;br&gt;&lt;/div&gt;" style="text;strokeColor=none;fillColor=none;align=left;verticalAlign=top;spacingLeft=4;spacingRight=4;overflow=hidden;rotatable=0;points=[[0,0.5],[1,0.5]];portConstraint=eastwest;whiteSpace=wrap;html=1;" parent="dmmK0RkEytolnTPD6juw-5" vertex="1">
          <mxGeometry y="26" width="160" height="64" as="geometry" />
        </mxCell>
        <mxCell id="dmmK0RkEytolnTPD6juw-7" value="AIAnalyzer" style="swimlane;fontStyle=1;align=center;verticalAlign=top;childLayout=stackLayout;horizontal=1;startSize=26;horizontalStack=0;resizeParent=1;resizeParentMax=0;resizeLast=0;collapsible=1;marginBottom=0;whiteSpace=wrap;html=1;" parent="1" vertex="1">
          <mxGeometry x="1400" y="660" width="160" height="130" as="geometry" />
        </mxCell>
        <mxCell id="dmmK0RkEytolnTPD6juw-8" value="&lt;div&gt;&lt;div&gt;+ analyzeImage(image: Image): AnalysisResult&lt;/div&gt;&lt;div&gt;+ analyzeText(text: String): AnalysisResult&lt;/div&gt;&lt;div&gt;+ analyzeRisk(report: Report): Float&lt;/div&gt;&lt;/div&gt;&lt;div&gt;&lt;br&gt;&lt;/div&gt;" style="text;strokeColor=none;fillColor=none;align=left;verticalAlign=top;spacingLeft=4;spacingRight=4;overflow=hidden;rotatable=0;points=[[0,0.5],[1,0.5]];portConstraint=eastwest;whiteSpace=wrap;html=1;" parent="dmmK0RkEytolnTPD6juw-7" vertex="1">
          <mxGeometry y="26" width="160" height="104" as="geometry" />
        </mxCell>
        <mxCell id="dmmK0RkEytolnTPD6juw-9" value="&lt;div&gt;Database&lt;/div&gt;" style="swimlane;fontStyle=1;align=center;verticalAlign=top;childLayout=stackLayout;horizontal=1;startSize=26;horizontalStack=0;resizeParent=1;resizeParentMax=0;resizeLast=0;collapsible=1;marginBottom=0;whiteSpace=wrap;html=1;" parent="1" vertex="1">
          <mxGeometry x="1530" y="390" width="160" height="170" as="geometry" />
        </mxCell>
        <mxCell id="dmmK0RkEytolnTPD6juw-10" value="&lt;div&gt;&lt;div&gt;+ fetchReport(id: int): Report&lt;/div&gt;&lt;div&gt;+ fetchUsers(): List&amp;lt;User&amp;gt;&lt;/div&gt;&lt;div&gt;+ storeNotification(notification: Notification): void&lt;/div&gt;&lt;div&gt;+ updateReport(report: Report): void&lt;/div&gt;&lt;/div&gt;&lt;div&gt;&lt;br&gt;&lt;/div&gt;" style="text;strokeColor=none;fillColor=none;align=left;verticalAlign=top;spacingLeft=4;spacingRight=4;overflow=hidden;rotatable=0;points=[[0,0.5],[1,0.5]];portConstraint=eastwest;whiteSpace=wrap;html=1;" parent="dmmK0RkEytolnTPD6juw-9" vertex="1">
          <mxGeometry y="26" width="160" height="144" as="geometry" />
        </mxCell>
        <mxCell id="dmmK0RkEytolnTPD6juw-11" value="User" style="swimlane;fontStyle=1;align=center;verticalAlign=top;childLayout=stackLayout;horizontal=1;startSize=24;horizontalStack=0;resizeParent=1;resizeParentMax=0;resizeLast=0;collapsible=1;marginBottom=0;whiteSpace=wrap;html=1;" parent="1" vertex="1">
          <mxGeometry x="2070" y="300" width="160" height="208" as="geometry" />
        </mxCell>
        <mxCell id="dmmK0RkEytolnTPD6juw-12" value="&lt;div&gt;+ id: int&lt;/div&gt;&lt;div&gt;+ name: String&lt;/div&gt;&lt;div&gt;+ coordinates: Coordinates&lt;/div&gt;&lt;div&gt;&lt;span style=&quot;background-color: transparent; color: light-dark(rgb(0, 0, 0), rgb(255, 255, 255));&quot;&gt;+ notificationsEnabled: Boolean&lt;/span&gt;&lt;/div&gt;&lt;div&gt;+ locationSharingEnabled: Boolean&lt;/div&gt;" style="text;strokeColor=none;fillColor=none;align=left;verticalAlign=top;spacingLeft=4;spacingRight=4;overflow=hidden;rotatable=0;points=[[0,0.5],[1,0.5]];portConstraint=eastwest;whiteSpace=wrap;html=1;" parent="dmmK0RkEytolnTPD6juw-11" vertex="1">
          <mxGeometry y="24" width="160" height="134" as="geometry" />
        </mxCell>
        <mxCell id="dmmK0RkEytolnTPD6juw-13" value="" style="line;strokeWidth=1;fillColor=none;align=left;verticalAlign=middle;spacingTop=-1;spacingLeft=3;spacingRight=3;rotatable=0;labelPosition=right;points=[];portConstraint=eastwest;strokeColor=inherit;" parent="dmmK0RkEytolnTPD6juw-11" vertex="1">
          <mxGeometry y="158" width="160" height="8" as="geometry" />
        </mxCell>
        <mxCell id="dmmK0RkEytolnTPD6juw-14" value="+ isEligibleForNotification(): Boolean" style="text;strokeColor=none;fillColor=none;align=left;verticalAlign=top;spacingLeft=4;spacingRight=4;overflow=hidden;rotatable=0;points=[[0,0.5],[1,0.5]];portConstraint=eastwest;whiteSpace=wrap;html=1;" parent="dmmK0RkEytolnTPD6juw-11" vertex="1">
          <mxGeometry y="166" width="160" height="42" as="geometry" />
        </mxCell>
        <mxCell id="dmmK0RkEytolnTPD6juw-15" value="&lt;div&gt;NotificationSender&lt;/div&gt;" style="swimlane;fontStyle=1;align=center;verticalAlign=top;childLayout=stackLayout;horizontal=1;startSize=26;horizontalStack=0;resizeParent=1;resizeParentMax=0;resizeLast=0;collapsible=1;marginBottom=0;whiteSpace=wrap;html=1;" parent="1" vertex="1">
          <mxGeometry x="1980" y="910" width="160" height="112" as="geometry" />
        </mxCell>
        <mxCell id="dmmK0RkEytolnTPD6juw-16" value="&lt;div&gt;&lt;div&gt;&lt;div&gt;&lt;div&gt;&lt;div&gt;+ send(notification: Notification): Boolean&lt;/div&gt;&lt;/div&gt;&lt;/div&gt;&lt;/div&gt;&lt;/div&gt;&lt;div&gt;&lt;div&gt;+ createNotification(user: User, report: Report): Notification&lt;/div&gt;&lt;/div&gt;&lt;div&gt;&lt;br&gt;&lt;/div&gt;" style="text;strokeColor=none;fillColor=none;align=left;verticalAlign=top;spacingLeft=4;spacingRight=4;overflow=hidden;rotatable=0;points=[[0,0.5],[1,0.5]];portConstraint=eastwest;whiteSpace=wrap;html=1;" parent="dmmK0RkEytolnTPD6juw-15" vertex="1">
          <mxGeometry y="26" width="160" height="86" as="geometry" />
        </mxCell>
        <mxCell id="dmmK0RkEytolnTPD6juw-17" value="Notification" style="swimlane;fontStyle=1;align=center;verticalAlign=top;childLayout=stackLayout;horizontal=1;startSize=26;horizontalStack=0;resizeParent=1;resizeParentMax=0;resizeLast=0;collapsible=1;marginBottom=0;whiteSpace=wrap;html=1;" parent="1" vertex="1">
          <mxGeometry x="2290" y="390" width="160" height="190" as="geometry" />
        </mxCell>
        <mxCell id="dmmK0RkEytolnTPD6juw-18" value="&lt;div&gt;+ recipientId: int&lt;/div&gt;&lt;div&gt;+ message: String&lt;/div&gt;&lt;div&gt;+ type: Enum {USER, AUTHORITY}&lt;/div&gt;&lt;div&gt;+ status: Enum {PENDING, SENT, FAILED}&lt;/div&gt;&lt;div&gt;+ timestamp: DateTime&lt;/div&gt;&lt;div&gt;&lt;div&gt;+ retryScheduled: Boolean&lt;/div&gt;&lt;/div&gt;&lt;div&gt;&lt;br&gt;&lt;/div&gt;&lt;div&gt;&lt;br&gt;&lt;/div&gt;" style="text;strokeColor=none;fillColor=none;align=left;verticalAlign=top;spacingLeft=4;spacingRight=4;overflow=hidden;rotatable=0;points=[[0,0.5],[1,0.5]];portConstraint=eastwest;whiteSpace=wrap;html=1;" parent="dmmK0RkEytolnTPD6juw-17" vertex="1">
          <mxGeometry y="26" width="160" height="124" as="geometry" />
        </mxCell>
        <mxCell id="dmmK0RkEytolnTPD6juw-19" value="" style="line;strokeWidth=1;fillColor=none;align=left;verticalAlign=middle;spacingTop=-1;spacingLeft=3;spacingRight=3;rotatable=0;labelPosition=right;points=[];portConstraint=eastwest;strokeColor=inherit;" parent="dmmK0RkEytolnTPD6juw-17" vertex="1">
          <mxGeometry y="150" width="160" height="8" as="geometry" />
        </mxCell>
        <mxCell id="dmmK0RkEytolnTPD6juw-20" value="+ markAsSent(): void" style="text;strokeColor=none;fillColor=none;align=left;verticalAlign=top;spacingLeft=4;spacingRight=4;overflow=hidden;rotatable=0;points=[[0,0.5],[1,0.5]];portConstraint=eastwest;whiteSpace=wrap;html=1;" parent="dmmK0RkEytolnTPD6juw-17" vertex="1">
          <mxGeometry y="158" width="160" height="32" as="geometry" />
        </mxCell>
        <mxCell id="dmmK0RkEytolnTPD6juw-21" value="DistanceCalculator" style="swimlane;fontStyle=1;align=center;verticalAlign=top;childLayout=stackLayout;horizontal=1;startSize=26;horizontalStack=0;resizeParent=1;resizeParentMax=0;resizeLast=0;collapsible=1;marginBottom=0;whiteSpace=wrap;html=1;" parent="1" vertex="1">
          <mxGeometry x="1700" y="942" width="160" height="80" as="geometry" />
        </mxCell>
        <mxCell id="dmmK0RkEytolnTPD6juw-22" value="&lt;div&gt;&lt;div&gt;&lt;div&gt;&lt;div&gt;+ calculateDistance(c1: Coordinates, c2: Coordinates): Float&lt;/div&gt;&lt;/div&gt;&lt;/div&gt;&lt;/div&gt;&lt;div&gt;&lt;br&gt;&lt;/div&gt;" style="text;strokeColor=none;fillColor=none;align=left;verticalAlign=top;spacingLeft=4;spacingRight=4;overflow=hidden;rotatable=0;points=[[0,0.5],[1,0.5]];portConstraint=eastwest;whiteSpace=wrap;html=1;" parent="dmmK0RkEytolnTPD6juw-21" vertex="1">
          <mxGeometry y="26" width="160" height="54" as="geometry" />
        </mxCell>
        <mxCell id="dmmK0RkEytolnTPD6juw-23" value="&lt;div&gt;AuthorityService&lt;/div&gt;" style="swimlane;fontStyle=1;align=center;verticalAlign=top;childLayout=stackLayout;horizontal=1;startSize=26;horizontalStack=0;resizeParent=1;resizeParentMax=0;resizeLast=0;collapsible=1;marginBottom=0;whiteSpace=wrap;html=1;" parent="1" vertex="1">
          <mxGeometry x="2260" y="760" width="160" height="160" as="geometry" />
        </mxCell>
        <mxCell id="dmmK0RkEytolnTPD6juw-24" value="&lt;div&gt;+ id: int&lt;/div&gt;&lt;div&gt;+ name: String&lt;/div&gt;&lt;div&gt;+ categoryHandled: String&lt;/div&gt;&lt;div&gt;+ endpointURL: String&lt;/div&gt;" style="text;strokeColor=none;fillColor=none;align=left;verticalAlign=top;spacingLeft=4;spacingRight=4;overflow=hidden;rotatable=0;points=[[0,0.5],[1,0.5]];portConstraint=eastwest;whiteSpace=wrap;html=1;" parent="dmmK0RkEytolnTPD6juw-23" vertex="1">
          <mxGeometry y="26" width="160" height="84" as="geometry" />
        </mxCell>
        <mxCell id="dmmK0RkEytolnTPD6juw-25" value="" style="line;strokeWidth=1;fillColor=none;align=left;verticalAlign=middle;spacingTop=-1;spacingLeft=3;spacingRight=3;rotatable=0;labelPosition=right;points=[];portConstraint=eastwest;strokeColor=inherit;" parent="dmmK0RkEytolnTPD6juw-23" vertex="1">
          <mxGeometry y="110" width="160" height="8" as="geometry" />
        </mxCell>
        <mxCell id="dmmK0RkEytolnTPD6juw-26" value="+ canHandle(category: String): Boolean" style="text;strokeColor=none;fillColor=none;align=left;verticalAlign=top;spacingLeft=4;spacingRight=4;overflow=hidden;rotatable=0;points=[[0,0.5],[1,0.5]];portConstraint=eastwest;whiteSpace=wrap;html=1;" parent="dmmK0RkEytolnTPD6juw-23" vertex="1">
          <mxGeometry y="118" width="160" height="42" as="geometry" />
        </mxCell>
        <mxCell id="dmmK0RkEytolnTPD6juw-27" value="&lt;div&gt;SystemManager&lt;/div&gt;" style="swimlane;fontStyle=1;align=center;verticalAlign=top;childLayout=stackLayout;horizontal=1;startSize=26;horizontalStack=0;resizeParent=1;resizeParentMax=0;resizeLast=0;collapsible=1;marginBottom=0;whiteSpace=wrap;html=1;" parent="1" vertex="1">
          <mxGeometry x="1810" y="644" width="170" height="198" as="geometry" />
        </mxCell>
        <mxCell id="dmmK0RkEytolnTPD6juw-28" value="&lt;div&gt;&lt;div&gt;+ validateReport(report: Report): Boolean&lt;/div&gt;&lt;div&gt;+ notifyNearbyUsers(report: Report): void&lt;/div&gt;&lt;div&gt;+ notifyAuthorities(report: Report): void&lt;/div&gt;&lt;/div&gt;&lt;div&gt;&lt;span style=&quot;background-color: transparent;&quot;&gt;+ combineResults(imgRes: AnalysisResult, txtRes: AnalysisResult): boolean&lt;/span&gt;&lt;/div&gt;&lt;div&gt;&lt;div&gt;+ notifyNearbyUsers(report: Report): void&lt;/div&gt;&lt;/div&gt;&lt;div&gt;&lt;br&gt;&lt;/div&gt;" style="text;strokeColor=none;fillColor=none;align=left;verticalAlign=top;spacingLeft=4;spacingRight=4;overflow=hidden;rotatable=0;points=[[0,0.5],[1,0.5]];portConstraint=eastwest;whiteSpace=wrap;html=1;" parent="dmmK0RkEytolnTPD6juw-27" vertex="1">
          <mxGeometry y="26" width="170" height="172" as="geometry" />
        </mxCell>
        <mxCell id="dmmK0RkEytolnTPD6juw-29" value="&amp;lt;&amp;lt;use&amp;gt;&amp;gt;" style="endArrow=open;endSize=12;dashed=1;html=1;rounded=0;exitX=0.005;exitY=0.395;exitDx=0;exitDy=0;exitPerimeter=0;" parent="1" source="dmmK0RkEytolnTPD6juw-28" target="dmmK0RkEytolnTPD6juw-8" edge="1">
          <mxGeometry width="160" relative="1" as="geometry">
            <mxPoint x="1870" y="820" as="sourcePoint" />
            <mxPoint x="2030" y="820" as="targetPoint" />
          </mxGeometry>
        </mxCell>
        <mxCell id="dmmK0RkEytolnTPD6juw-30" value="&amp;lt;&amp;lt;use&amp;gt;&amp;gt;" style="endArrow=open;endSize=12;dashed=1;html=1;rounded=0;entryX=0.741;entryY=1.021;entryDx=0;entryDy=0;entryPerimeter=0;exitX=0;exitY=0.077;exitDx=0;exitDy=0;exitPerimeter=0;" parent="1" source="dmmK0RkEytolnTPD6juw-27" target="dmmK0RkEytolnTPD6juw-10" edge="1">
          <mxGeometry width="160" relative="1" as="geometry">
            <mxPoint x="1850" y="730" as="sourcePoint" />
            <mxPoint x="1660" y="738" as="targetPoint" />
            <Array as="points">
              <mxPoint x="1650" y="660" />
            </Array>
          </mxGeometry>
        </mxCell>
        <mxCell id="dmmK0RkEytolnTPD6juw-31" value="&amp;lt;&amp;lt;use&amp;gt;&amp;gt;" style="endArrow=open;endSize=12;dashed=1;html=1;rounded=0;entryX=0.389;entryY=0.045;entryDx=0;entryDy=0;entryPerimeter=0;exitX=0.598;exitY=1.019;exitDx=0;exitDy=0;exitPerimeter=0;" parent="1" source="dmmK0RkEytolnTPD6juw-28" target="dmmK0RkEytolnTPD6juw-15" edge="1">
          <mxGeometry x="-0.0716" y="-20" width="160" relative="1" as="geometry">
            <mxPoint x="1870" y="748" as="sourcePoint" />
            <mxPoint x="1670" y="748" as="targetPoint" />
            <Array as="points">
              <mxPoint x="1912" y="870" />
              <mxPoint x="2042" y="870" />
            </Array>
            <mxPoint x="1" as="offset" />
          </mxGeometry>
        </mxCell>
        <mxCell id="dmmK0RkEytolnTPD6juw-32" value="&amp;lt;&amp;lt;use&amp;gt;&amp;gt;" style="endArrow=open;endSize=12;dashed=1;html=1;rounded=0;exitX=0.405;exitY=0.983;exitDx=0;exitDy=0;exitPerimeter=0;" parent="1" source="dmmK0RkEytolnTPD6juw-28" target="dmmK0RkEytolnTPD6juw-21" edge="1">
          <mxGeometry x="-0.2298" y="20" width="160" relative="1" as="geometry">
            <mxPoint x="1880" y="758" as="sourcePoint" />
            <mxPoint x="1680" y="758" as="targetPoint" />
            <Array as="points">
              <mxPoint x="1880" y="870" />
              <mxPoint x="1780" y="870" />
            </Array>
            <mxPoint as="offset" />
          </mxGeometry>
        </mxCell>
        <mxCell id="dmmK0RkEytolnTPD6juw-33" value="" style="endArrow=open;startArrow=none;endFill=0;startFill=0;endSize=8;html=1;verticalAlign=bottom;labelBackgroundColor=none;strokeWidth=1;rounded=0;entryX=0.488;entryY=1.065;entryDx=0;entryDy=0;entryPerimeter=0;exitX=0.454;exitY=-0.002;exitDx=0;exitDy=0;exitPerimeter=0;" parent="1" source="dmmK0RkEytolnTPD6juw-27" target="dmmK0RkEytolnTPD6juw-4" edge="1">
          <mxGeometry width="160" relative="1" as="geometry">
            <mxPoint x="1910" y="700" as="sourcePoint" />
            <mxPoint x="1930" y="570" as="targetPoint" />
            <Array as="points" />
          </mxGeometry>
        </mxCell>
        <mxCell id="dmmK0RkEytolnTPD6juw-34" value="" style="endArrow=open;startArrow=none;endFill=0;startFill=0;endSize=8;html=1;verticalAlign=bottom;labelBackgroundColor=none;strokeWidth=1;rounded=0;" parent="1" source="dmmK0RkEytolnTPD6juw-27" target="dmmK0RkEytolnTPD6juw-14" edge="1">
          <mxGeometry width="160" relative="1" as="geometry">
            <mxPoint x="1930" y="650" as="sourcePoint" />
            <mxPoint x="2204" y="730" as="targetPoint" />
            <Array as="points">
              <mxPoint x="2150" y="743" />
            </Array>
          </mxGeometry>
        </mxCell>
        <mxCell id="dmmK0RkEytolnTPD6juw-35" value="" style="endArrow=open;startArrow=none;endFill=0;startFill=0;endSize=8;html=1;verticalAlign=bottom;labelBackgroundColor=none;strokeWidth=1;rounded=0;entryX=0.485;entryY=1.046;entryDx=0;entryDy=0;entryPerimeter=0;exitX=0.99;exitY=0.072;exitDx=0;exitDy=0;exitPerimeter=0;" parent="1" source="dmmK0RkEytolnTPD6juw-27" target="dmmK0RkEytolnTPD6juw-20" edge="1">
          <mxGeometry width="160" relative="1" as="geometry">
            <mxPoint x="2018" y="670" as="sourcePoint" />
            <mxPoint x="2204" y="730" as="targetPoint" />
            <Array as="points">
              <mxPoint x="2370" y="659" />
            </Array>
          </mxGeometry>
        </mxCell>
        <mxCell id="dmmK0RkEytolnTPD6juw-36" value="" style="endArrow=open;startArrow=none;endFill=0;startFill=0;endSize=8;html=1;verticalAlign=bottom;labelBackgroundColor=none;strokeWidth=1;rounded=0;" parent="1" source="dmmK0RkEytolnTPD6juw-8" target="dmmK0RkEytolnTPD6juw-5" edge="1">
          <mxGeometry width="160" relative="1" as="geometry">
            <mxPoint x="2027" y="730" as="sourcePoint" />
            <mxPoint x="2310" y="730" as="targetPoint" />
          </mxGeometry>
        </mxCell>
        <mxCell id="dmmK0RkEytolnTPD6juw-37" value="" style="endArrow=open;startArrow=none;endFill=0;startFill=0;endSize=8;html=1;verticalAlign=bottom;labelBackgroundColor=none;strokeWidth=1;rounded=0;entryX=0.012;entryY=0.078;entryDx=0;entryDy=0;entryPerimeter=0;" parent="1" target="dmmK0RkEytolnTPD6juw-17" edge="1">
          <mxGeometry width="160" relative="1" as="geometry">
            <mxPoint x="2230" y="317" as="sourcePoint" />
            <mxPoint x="2270" y="470" as="targetPoint" />
            <Array as="points">
              <mxPoint x="2260" y="317" />
              <mxPoint x="2260" y="405" />
            </Array>
          </mxGeometry>
        </mxCell>
        <mxCell id="dmmK0RkEytolnTPD6juw-38" value="1" style="text;html=1;align=center;verticalAlign=middle;resizable=0;points=[];autosize=1;strokeColor=none;fillColor=none;" parent="1" vertex="1">
          <mxGeometry x="2225" y="288" width="30" height="30" as="geometry" />
        </mxCell>
        <mxCell id="dmmK0RkEytolnTPD6juw-39" value="&lt;font style=&quot;font-size: 18px;&quot;&gt;*&lt;/font&gt;" style="text;html=1;align=center;verticalAlign=middle;resizable=0;points=[];autosize=1;strokeColor=none;fillColor=none;" parent="1" vertex="1">
          <mxGeometry x="2255" y="380" width="30" height="40" as="geometry" />
        </mxCell>
        <mxCell id="dmmK0RkEytolnTPD6juw-40" value="" style="endArrow=open;startArrow=none;endFill=0;startFill=0;endSize=8;html=1;verticalAlign=bottom;labelBackgroundColor=none;strokeWidth=1;rounded=0;exitX=0.245;exitY=1.05;exitDx=0;exitDy=0;exitPerimeter=0;" parent="1" source="dmmK0RkEytolnTPD6juw-20" edge="1">
          <mxGeometry width="160" relative="1" as="geometry">
            <mxPoint x="2440" y="727" as="sourcePoint" />
            <mxPoint x="2329" y="760" as="targetPoint" />
            <Array as="points" />
          </mxGeometry>
        </mxCell>
        <mxCell id="dmmK0RkEytolnTPD6juw-41" value="0" style="text;html=1;align=center;verticalAlign=middle;resizable=0;points=[];autosize=1;strokeColor=none;fillColor=none;" parent="1" vertex="1">
          <mxGeometry x="2305" y="578" width="30" height="30" as="geometry" />
        </mxCell>
        <mxCell id="dmmK0RkEytolnTPD6juw-42" value="1" style="text;html=1;align=center;verticalAlign=middle;resizable=0;points=[];autosize=1;strokeColor=none;fillColor=none;" parent="1" vertex="1">
          <mxGeometry x="2295" y="728" width="30" height="30" as="geometry" />
        </mxCell>
        <mxCell id="dmmK0RkEytolnTPD6juw-43" value="" style="endArrow=open;startArrow=none;endFill=0;startFill=0;endSize=8;html=1;verticalAlign=bottom;labelBackgroundColor=none;strokeWidth=1;rounded=0;exitX=1;exitY=0.5;exitDx=0;exitDy=0;entryX=0.46;entryY=-0.007;entryDx=0;entryDy=0;entryPerimeter=0;" parent="1" source="dmmK0RkEytolnTPD6juw-18" target="dmmK0RkEytolnTPD6juw-1" edge="1">
          <mxGeometry width="160" relative="1" as="geometry">
            <mxPoint x="2460" y="478" as="sourcePoint" />
            <mxPoint x="2920" y="248" as="targetPoint" />
            <Array as="points">
              <mxPoint x="2520" y="478" />
              <mxPoint x="2520" y="388" />
              <mxPoint x="2520" y="230" />
              <mxPoint x="1884" y="230" />
            </Array>
          </mxGeometry>
        </mxCell>
        <mxCell id="dmmK0RkEytolnTPD6juw-44" value="0" style="text;html=1;align=center;verticalAlign=middle;resizable=0;points=[];autosize=1;strokeColor=none;fillColor=none;" parent="1" vertex="1">
          <mxGeometry x="1980" y="710" width="30" height="30" as="geometry" />
        </mxCell>
        <mxCell id="dmmK0RkEytolnTPD6juw-45" value="&lt;font style=&quot;font-size: 18px;&quot;&gt;*&lt;/font&gt;" style="text;html=1;align=center;verticalAlign=middle;resizable=0;points=[];autosize=1;strokeColor=none;fillColor=none;" parent="1" vertex="1">
          <mxGeometry x="2150" y="508" width="30" height="40" as="geometry" />
        </mxCell>
        <mxCell id="dmmK0RkEytolnTPD6juw-46" value="" style="endArrow=open;startArrow=none;endFill=0;startFill=0;endSize=8;html=1;verticalAlign=bottom;labelBackgroundColor=none;strokeWidth=1;rounded=0;" parent="1" edge="1">
          <mxGeometry width="160" relative="1" as="geometry">
            <mxPoint x="2140" y="990" as="sourcePoint" />
            <mxPoint x="2400" y="580" as="targetPoint" />
            <Array as="points">
              <mxPoint x="2500" y="990" />
              <mxPoint x="2500" y="700" />
              <mxPoint x="2400" y="700" />
            </Array>
          </mxGeometry>
        </mxCell>
        <mxCell id="dmmK0RkEytolnTPD6juw-47" value="1" style="text;html=1;align=center;verticalAlign=middle;resizable=0;points=[];autosize=1;strokeColor=none;fillColor=none;" parent="1" vertex="1">
          <mxGeometry x="2400" y="578" width="30" height="30" as="geometry" />
        </mxCell>
        <mxCell id="dmmK0RkEytolnTPD6juw-48" value="1" style="text;html=1;align=center;verticalAlign=middle;resizable=0;points=[];autosize=1;strokeColor=none;fillColor=none;" parent="1" vertex="1">
          <mxGeometry x="2445" y="478" width="30" height="30" as="geometry" />
        </mxCell>
        <mxCell id="dmmK0RkEytolnTPD6juw-49" value="1" style="text;html=1;align=center;verticalAlign=middle;resizable=0;points=[];autosize=1;strokeColor=none;fillColor=none;" parent="1" vertex="1">
          <mxGeometry x="1890" y="270" width="30" height="30" as="geometry" />
        </mxCell>
        <mxCell id="dmmK0RkEytolnTPD6juw-50" value="" style="endArrow=diamondThin;endFill=0;endSize=24;html=1;rounded=0;entryX=1;entryY=0.5;entryDx=0;entryDy=0;" parent="1" target="dmmK0RkEytolnTPD6juw-2" edge="1">
          <mxGeometry width="160" relative="1" as="geometry">
            <mxPoint x="2070" y="393" as="sourcePoint" />
            <mxPoint x="2110" y="530" as="targetPoint" />
          </mxGeometry>
        </mxCell>
        <mxCell id="dmmK0RkEytolnTPD6juw-51" value="GeocodingAPI" style="swimlane;fontStyle=1;align=center;verticalAlign=top;childLayout=stackLayout;horizontal=1;startSize=26;horizontalStack=0;resizeParent=1;resizeParentMax=0;resizeLast=0;collapsible=1;marginBottom=0;whiteSpace=wrap;html=1;" parent="1" vertex="1">
          <mxGeometry x="1250" y="468" width="190" height="80" as="geometry" />
        </mxCell>
        <mxCell id="dmmK0RkEytolnTPD6juw-52" value="&lt;div&gt;&lt;div&gt;&lt;div&gt;&lt;div&gt;&lt;div&gt;&lt;div&gt;&lt;div&gt;+ getCoordinates(address: String): Coordinates&lt;/div&gt;&lt;/div&gt;&lt;/div&gt;&lt;/div&gt;&lt;/div&gt;&lt;/div&gt;&lt;/div&gt;&lt;div&gt;&lt;br&gt;&lt;/div&gt;" style="text;strokeColor=none;fillColor=none;align=left;verticalAlign=top;spacingLeft=4;spacingRight=4;overflow=hidden;rotatable=0;points=[[0,0.5],[1,0.5]];portConstraint=eastwest;whiteSpace=wrap;html=1;" parent="dmmK0RkEytolnTPD6juw-51" vertex="1">
          <mxGeometry y="26" width="190" height="54" as="geometry" />
        </mxCell>
        <mxCell id="dmmK0RkEytolnTPD6juw-53" value="Coordinates" style="swimlane;fontStyle=1;align=center;verticalAlign=top;childLayout=stackLayout;horizontal=1;startSize=26;horizontalStack=0;resizeParent=1;resizeParentMax=0;resizeLast=0;collapsible=1;marginBottom=0;whiteSpace=wrap;html=1;" parent="1" vertex="1">
          <mxGeometry x="1560" y="250" width="160" height="90" as="geometry" />
        </mxCell>
        <mxCell id="dmmK0RkEytolnTPD6juw-54" value="&lt;div&gt;&lt;div&gt;+ latitude: Float&amp;nbsp;&amp;nbsp;&lt;/div&gt;&lt;div&gt;+ longitude: Float&lt;/div&gt;&lt;/div&gt;&lt;div&gt;&lt;br&gt;&lt;/div&gt;" style="text;strokeColor=none;fillColor=none;align=left;verticalAlign=top;spacingLeft=4;spacingRight=4;overflow=hidden;rotatable=0;points=[[0,0.5],[1,0.5]];portConstraint=eastwest;whiteSpace=wrap;html=1;" parent="dmmK0RkEytolnTPD6juw-53" vertex="1">
          <mxGeometry y="26" width="160" height="64" as="geometry" />
        </mxCell>
        <mxCell id="dmmK0RkEytolnTPD6juw-55" value="&amp;lt;&amp;lt;use&amp;gt;&amp;gt;" style="endArrow=open;endSize=12;dashed=1;html=1;rounded=0;exitX=0;exitY=0.077;exitDx=0;exitDy=0;exitPerimeter=0;entryX=0.423;entryY=1.066;entryDx=0;entryDy=0;entryPerimeter=0;" parent="1" target="dmmK0RkEytolnTPD6juw-52" edge="1">
          <mxGeometry x="0.344" y="-10" width="160" relative="1" as="geometry">
            <mxPoint x="1810" y="706" as="sourcePoint" />
            <mxPoint x="1650" y="610" as="targetPoint" />
            <Array as="points">
              <mxPoint x="1590" y="707" />
              <mxPoint x="1590" y="630" />
              <mxPoint x="1330" y="630" />
            </Array>
            <mxPoint as="offset" />
          </mxGeometry>
        </mxCell>
        <mxCell id="dmmK0RkEytolnTPD6juw-56" value="1" style="endArrow=open;html=1;endSize=12;startArrow=diamondThin;startSize=14;startFill=0;edgeStyle=orthogonalEdgeStyle;align=left;verticalAlign=bottom;rounded=0;exitX=0.174;exitY=-0.006;exitDx=0;exitDy=0;exitPerimeter=0;entryX=0.5;entryY=0;entryDx=0;entryDy=0;" parent="1" source="dmmK0RkEytolnTPD6juw-1" target="dmmK0RkEytolnTPD6juw-53" edge="1">
          <mxGeometry x="-0.9999" y="18" relative="1" as="geometry">
            <mxPoint x="1760" y="350" as="sourcePoint" />
            <mxPoint x="1920" y="350" as="targetPoint" />
            <Array as="points">
              <mxPoint x="1838" y="230" />
              <mxPoint x="1640" y="230" />
            </Array>
            <mxPoint as="offset" />
          </mxGeometry>
        </mxCell>
        <mxCell id="dmmK0RkEytolnTPD6juw-57" value="1" style="endArrow=open;html=1;endSize=12;startArrow=diamondThin;startSize=14;startFill=0;edgeStyle=orthogonalEdgeStyle;align=left;verticalAlign=bottom;rounded=0;exitX=0.174;exitY=-0.006;exitDx=0;exitDy=0;exitPerimeter=0;entryX=-0.019;entryY=0.382;entryDx=0;entryDy=0;entryPerimeter=0;" parent="1" target="dmmK0RkEytolnTPD6juw-54" edge="1">
          <mxGeometry x="-0.9999" y="18" relative="1" as="geometry">
            <mxPoint x="2140" y="300" as="sourcePoint" />
            <mxPoint x="1942" y="251" as="targetPoint" />
            <Array as="points">
              <mxPoint x="2140" y="190" />
              <mxPoint x="1470" y="190" />
              <mxPoint x="1470" y="300" />
            </Array>
            <mxPoint as="offset" />
          </mxGeometry>
        </mxCell>
      </root>
    </mxGraphModel>
  </diagram>
</mxfile>
